<svg xmlns="http://www.w3.org/2000/svg" width="62" height="61" fill="none" viewBox="0 0 62 61"><path fill="url(#a)" d="M16.32 44.95s14.75-2 21.05-8.19c6.3-6.19 8.31-20.7 8.31-20.7s-14.75 1.99-21.04 8.18c-6.3 6.2-8.32 20.7-8.32 20.7Zm11.5-17.58c2.65-2.6 7.7-4.45 12.05-5.6-1.17 4.26-3.06 9.28-5.69 11.86a4.54 4.54 0 0 1-6.36 0 4.37 4.37 0 0 1 0-6.26ZM31 0C13.88 0 0 13.65 0 30.5S13.88 61 31 61c17.12 0 31-13.65 31-30.5S48.12 0 31 0Zm0 54.64c-13.55 0-24.54-10.8-24.54-24.14S17.44 6.35 31 6.35c13.55 0 24.54 10.81 24.54 24.15 0 13.33-10.99 24.14-24.54 24.14Z"/><defs><linearGradient id="a" x1="0" x2="62" y1="30.5" y2="30.5" gradientUnits="userSpaceOnUse"><stop offset=".04" stop-color="#C3956A"/><stop offset="1" stop-color="#A24F03"/></linearGradient></defs></svg>