<svg xmlns="http://www.w3.org/2000/svg" width="63" height="62" fill="none" viewBox="0 0 63 62"><path fill="url(#a)" d="M31.5 0C14.13 0 0 13.9 0 31s14.13 31 31.5 31C48.87 62 63 48.1 63 31S48.87 0 31.5 0Zm26.87 31c0 6.05-2.09 11.63-5.57 16.08a4.17 4.17 0 0 1-1.04-4.92c.99-2.13 1.25-7.06 1.02-8.98-.22-1.92-1.23-6.54-3.98-6.59-2.75-.04-4.64-.93-6.27-4.14-3.4-6.68 6.36-7.96 2.97-11.65-.95-1.04-5.85 4.26-6.57-2.81-.05-.5.44-1.27 1.1-2.05C50.68 9.45 58.37 19.36 58.37 31ZM27.8 4.82c-.64 1.23-2.34 1.74-3.37 2.66-2.24 2-3.2 1.72-4.42 3.64-1.21 1.92-5.14 4.68-5.14 6.07 0 1.39 1.98 3.02 2.98 2.7.99-.32 3.6-.3 5.14.23 1.54.54 12.84 1.07 9.24 10.48-1.15 2.99-6.15 2.48-7.48 7.43-.2.73-.9 3.83-.94 4.85-.08 1.57 1.13 7.48-.4 7.48-1.55 0-5.7-5.3-5.7-6.25 0-.96-1.08-4.32-1.08-7.2s-4.99-2.83-4.99-6.66c0-3.45 2.7-5.17 2.1-6.82-.6-1.65-5.34-1.7-7.32-1.9a26.87 26.87 0 0 1 21.38-16.7ZM23.05 56.1c1.61-.84 1.78-1.92 3.24-1.98 1.67-.07 3.04-.64 4.92-1.05 1.68-.36 4.67-2.03 7.3-2.25 2.23-.17 6.62.12 7.8 2.23a26.98 26.98 0 0 1-23.26 3.05Z"/><defs><linearGradient id="a" x1="0" x2="63" y1="31" y2="31" gradientUnits="userSpaceOnUse"><stop offset=".04" stop-color="#C3956A"/><stop offset="1" stop-color="#A24F03"/></linearGradient></defs></svg>