<svg xmlns="http://www.w3.org/2000/svg" width="65" height="58" fill="none" viewBox="0 0 65 58"><path fill="url(#a)" d="m64.35 13.42-7.72-5.9a6.52 6.52 0 0 0-1.7-.76 6.67 6.67 0 0 0-1.84-.32H30.87l2.6 16.12H53.1c.53 0 1.2-.12 1.84-.32.64-.2 1.26-.47 1.7-.76l7.71-5.9c.44-.3.66-.69.66-1.08 0-.4-.22-.78-.65-1.08ZM27.63 0h-3.25c-.9 0-1.63.72-1.63 1.61V12.9H11.91c-.54 0-1.2.12-1.84.32-.65.2-1.26.46-1.7.76l-7.72 5.9c-.44.29-.65.68-.65 1.07 0 .4.21.78.65 1.08l7.72 5.9c.44.3 1.05.57 1.7.76.64.2 1.3.32 1.84.32h10.84v27.39c0 .89.73 1.61 1.63 1.61h3.25c.9 0 1.62-.72 1.62-1.61V1.6c0-.89-.73-1.61-1.63-1.61Z"/><defs><linearGradient id="a" x1="0" x2="65" y1="29" y2="29" gradientUnits="userSpaceOnUse"><stop offset=".04" stop-color="#C3956A"/><stop offset="1" stop-color="#A24F03"/></linearGradient></defs></svg>