<svg xmlns="http://www.w3.org/2000/svg" width="56" height="70" fill="none" viewBox="0 0 56 70"><path fill="#fff" fill-rule="evenodd" d="M18.95 52.2c-1.1-1.28-2.24-2.5-3.46-3.8C8.7 41.11-.47 31.3.02 19.63c.38-9.14 7.2-15.14 16-17.88a41.58 41.58 0 0 1 23.95 0C48.8 4.5 55.6 10.5 55.98 19.65c.49 11.67-8.68 21.48-15.47 28.75a116.98 116.98 0 0 0-3.47 3.81l-.94 1.1v.08H19.96l-1-1.16v-.03ZM30.22 6.81v38.5c7.06-14.72 14.43-30.53 5.57-37.71-1.83-.42-3.7-.68-5.57-.79Zm-4.1 38.75V6.8c-1.88.1-3.75.34-5.6.74-9.07 7.18-1.56 23.19 5.6 38v.03Zm17.4-34.81c3.1 8.66-1.68 20.56-7.2 32.25 5.87-6.3 13.24-14.57 12.9-23.1-.17-3.91-2.38-7-5.7-9.15ZM20.13 43.49C14.47 31.56 9.5 19.37 12.77 10.56c-3.47 2.19-5.81 5.3-5.98 9.35-.37 8.75 7.4 17.22 13.34 23.58ZM36.1 54.88l-.79 6.25v5.21c0 2-1.94 3.66-4.32 3.66h-5.9c-2.38 0-4.33-1.65-4.33-3.66v-5l-.8-6.43h3.31l.55 4.36h8.42l.54-4.36 3.31-.03Z" clip-rule="evenodd"/></svg>