<svg xmlns="http://www.w3.org/2000/svg" width="61" height="64" fill="none" viewBox="0 0 61 64"><path fill="url(#a)" d="m60.69 57.93-4.4-13.13h-4.84l2.68 12.8H6.87l2.68-12.8H4.72L.32 57.93C-.82 61.27 1.17 64 4.71 64h51.56c3.55 0 5.53-2.73 4.4-6.07ZM46.6 16c0-8.84-7.2-16-16.1-16-8.91 0-16.12 7.16-16.12 16 0 15.28 16.11 32 16.11 32s16.11-16.72 16.11-32Zm-24.81.2c0-4.78 3.9-8.64 8.7-8.64 4.8 0 8.7 3.86 8.7 8.63 0 4.78-3.9 8.64-8.7 8.64-4.8 0-8.7-3.87-8.7-8.64Z"/><defs><linearGradient id="a" x1="0" x2="61" y1="32" y2="32" gradientUnits="userSpaceOnUse"><stop offset=".04" stop-color="#C3956A"/><stop offset="1" stop-color="#A24F03"/></linearGradient></defs></svg>